<svg width="17" height="17" viewBox="0 0 17 17" fill="none" xmlns="http://www.w3.org/2000/svg">
<path d="M16.1279 8.56445C16.1279 12.9827 12.5462 16.5645 8.12793 16.5645C3.70964 16.5645 0.12793 12.9827 0.12793 8.56445C0.12793 4.14616 3.70964 0.564453 8.12793 0.564453C12.5462 0.564453 16.1279 4.14616 16.1279 8.56445ZM7.20257 12.8004L13.1381 6.8649C13.3396 6.66336 13.3396 6.33655 13.1381 6.135L12.4082 5.4051C12.2066 5.20352 11.8798 5.20352 11.6782 5.4051L6.83761 10.2457L4.57764 7.98571C4.37609 7.78416 4.04928 7.78416 3.8477 7.98571L3.1178 8.71561C2.91625 8.91716 2.91625 9.24397 3.1178 9.44552L6.47264 12.8004C6.67422 13.0019 7.00099 13.0019 7.20257 12.8004Z" fill="#38BDF8"/>
</svg>
