<svg width="1920" height="322" viewBox="0 0 1920 322" fill="none" xmlns="http://www.w3.org/2000/svg">
<path d="M654.072 170.122C541.265 190.779 494.649 252.977 384.434 284.238C239.291 325.406 0 328.008 0 328.008L1016.08 351.456L1919.5 341.035V94.5665C1919.5 94.5665 1853.74 93.2918 1811.64 94.5665C1535.79 102.919 1400.42 259.671 1124.47 255.579C937.633 252.808 837.724 136.493 654.072 170.122Z" fill="#831843" fill-opacity="0.1"/>
<path d="M854.832 150.639C594.558 146.485 443.699 171.153 195.955 249.122C118.074 273.633 0 321.552 0 321.552L1016.08 345L1919.5 334.578V88.1103C1919.5 88.1103 1853.28 21.5059 1797.76 5.25939C1647.04 -38.848 1640.95 207.317 1495.02 264.754C1259.32 357.523 1108.94 154.694 854.832 150.639Z" fill="#7E22CE" fill-opacity="0.1"/>
<ellipse cx="160.715" cy="99.6001" rx="66.742" ry="65.1343" fill="#D8B4FE" fill-opacity="0.05"/>
<ellipse cx="93.9727" cy="41.7612" rx="42.7149" ry="41.686" fill="#D8B4FE" fill-opacity="0.05"/>
</svg>
