<svg width="1920" height="637" viewBox="0 0 1920 637" fill="none" xmlns="http://www.w3.org/2000/svg">
<g clip-path="url(#clip0_1153_1279)">
<circle cx="248" cy="199" r="55" fill="url(#paint0_radial_1153_1279)"/>
<circle cx="370.5" cy="553.5" r="37.5" fill="url(#paint1_radial_1153_1279)"/>
<circle cx="1654" cy="152" r="45" fill="url(#paint2_radial_1153_1279)"/>
<circle cx="1552" cy="343" r="15" fill="url(#paint3_radial_1153_1279)"/>
<circle cx="1800.5" cy="542.5" r="37.5" fill="url(#paint4_radial_1153_1279)"/>
<path d="M-15.5 344.5C-15.5 344.5 167.524 272.836 291 257.5C588.357 220.567 734.959 467.97 1034 449C1274.46 433.746 1379.3 414.04 1588.5 294.5C1683 240.5 1792.25 137.391 1902 123C1942.08 117.745 1973.5 123 1973.5 123" stroke="#FB64B6"/>
<path d="M-30.5 509C-30.5 509 162.943 461.866 289.5 453.5C612.815 432.129 782.381 680.149 1101.5 624C1306.43 587.944 1381 403.41 1589 409C1698.08 411.932 1752.77 501.679 1859.5 479C1889.22 472.686 1933 453.5 1933 453.5" stroke="#FB64B6"/>
<path d="M-32 49.9997C-32 49.9997 304.756 -46.8824 524.5 -37.0003C761.744 -26.3313 876.144 92.2383 1112 120C1334.08 146.139 1461.66 128.039 1684.5 109.5C1778.28 101.698 1924 82.9997 1924 82.9997" stroke="#FB64B6"/>
</g>
<defs>
<radialGradient id="paint0_radial_1153_1279" cx="0" cy="0" r="1" gradientUnits="userSpaceOnUse" gradientTransform="translate(248 199) rotate(90) scale(55)">
<stop stop-color="#F3F4F6"/>
<stop offset="0.173077" stop-color="#DB2777" stop-opacity="0.5"/>
<stop offset="1" stop-color="#DB2777" stop-opacity="0"/>
</radialGradient>
<radialGradient id="paint1_radial_1153_1279" cx="0" cy="0" r="1" gradientUnits="userSpaceOnUse" gradientTransform="translate(370.5 553.5) rotate(90) scale(37.5)">
<stop stop-color="#F3F4F6"/>
<stop offset="0.173077" stop-color="#DB2777" stop-opacity="0.5"/>
<stop offset="1" stop-color="#DB2777" stop-opacity="0"/>
</radialGradient>
<radialGradient id="paint2_radial_1153_1279" cx="0" cy="0" r="1" gradientUnits="userSpaceOnUse" gradientTransform="translate(1654 152) rotate(90) scale(45)">
<stop stop-color="#F3F4F6"/>
<stop offset="0.173077" stop-color="#DB2777" stop-opacity="0.5"/>
<stop offset="1" stop-color="#DB2777" stop-opacity="0"/>
</radialGradient>
<radialGradient id="paint3_radial_1153_1279" cx="0" cy="0" r="1" gradientUnits="userSpaceOnUse" gradientTransform="translate(1552 343) rotate(90) scale(15)">
<stop stop-color="#F3F4F6"/>
<stop offset="0.173077" stop-color="#DB2777" stop-opacity="0.5"/>
<stop offset="1" stop-color="#DB2777" stop-opacity="0"/>
</radialGradient>
<radialGradient id="paint4_radial_1153_1279" cx="0" cy="0" r="1" gradientUnits="userSpaceOnUse" gradientTransform="translate(1800.5 542.5) rotate(90) scale(37.5)">
<stop stop-color="#F3F4F6"/>
<stop offset="0.173077" stop-color="#DB2777" stop-opacity="0.5"/>
<stop offset="1" stop-color="#DB2777" stop-opacity="0"/>
</radialGradient>
<clipPath id="clip0_1153_1279">
<rect width="1920" height="637" fill="white"/>
</clipPath>
</defs>
</svg>
